<svg xmlns:xlink="http://www.w3.org/1999/xlink" class="icon icon-youtube icon-sm" viewBox="0 0 24 24" stroke="none" fill="currentColor" xmlns="http://www.w3.org/2000/svg" width="24"  height="24" >
      <path d="M23.8 7.6C23.8 7.6 23.6 5.9 22.8 5.2C21.9 4.2 20.9 4.2 20.4 4.2C17 4 12 4 12 4C12 4 7 4 3.6 4.2C3.1 4.3 2.1 4.3 1.2 5.2C0.5 5.9 0.2 7.6 0.2 7.6C0.2 7.6 0 9.5 0 11.5V13.3C0 15.2 0.2 17.2 0.2 17.2C0.2 17.2 0.4 18.9 1.2 19.6C2.1 20.6 3.3 20.5 3.8 20.6C5.7 20.8 12 20.8 12 20.8C12 20.8 17 20.8 20.4 20.5C20.9 20.4 21.9 20.4 22.8 19.5C23.5 18.8 23.8 17.1 23.8 17.1C23.8 17.1 24 15.2 24 13.2V11.4C24 9.5 23.8 7.6 23.8 7.6ZM9.5 15.5V8.8L16 12.2L9.5 15.5Z" fill="#171717" stroke-width="1.5px"></path>
    </svg>