<svg xmlns:xlink="http://www.w3.org/1999/xlink" class="icon icon-pinterest icon-sm" viewBox="0 0 24 24" stroke="none" fill="currentColor" xmlns="http://www.w3.org/2000/svg" width="24"  height="24" >
      <path d="M12 1C5.95 1 1 5.95 1 12C1 16.675 3.93333 20.6167 7.96667 22.2667C7.875 21.4417 7.78333 20.0667 7.96667 19.15C8.15 18.325 9.25 13.65 9.25 13.65C9.25 13.65 8.975 12.9167 8.975 12C8.975 10.4417 9.89167 9.34167 10.9917 9.34167C11.9083 9.34167 12.3667 10.075 12.3667 10.9C12.3667 11.8167 11.725 13.2833 11.45 14.5667C11.175 15.6667 12 16.5833 13.1 16.5833C15.025 16.5833 16.5833 14.5667 16.5833 11.5417C16.5833 8.88333 14.6583 7.05 12 7.05C8.88333 7.05 7.05 9.43333 7.05 11.8167C7.05 12.7333 7.41667 13.7417 7.875 14.2917C7.96667 14.3833 7.96667 14.475 7.96667 14.5667C7.875 14.9333 7.69167 15.6667 7.69167 15.85C7.6 16.0333 7.50833 16.125 7.325 16.0333C5.95 15.3917 5.125 13.375 5.125 11.8167C5.125 8.33333 7.69167 5.125 12.3667 5.125C16.2167 5.125 19.15 7.875 19.15 11.45C19.15 15.2083 16.7667 18.325 13.4667 18.325C12.3667 18.325 11.2667 17.775 10.9 17.0417C10.9 17.0417 10.35 19.15 10.2583 19.7C9.98333 20.6167 9.34167 21.8083 8.88333 22.5417C9.8 22.8167 10.9 23 12 23C18.05 23 23 18.05 23 12C23 5.95 18.05 1 12 1Z" fill="#171717" stroke-width="1.5px"></path>
    </svg>