<svg xmlns:xlink="http://www.w3.org/1999/xlink" class="icon icon-cart icon-lg" viewBox="0 0 24 24" stroke="currentColor" fill="none" xmlns="http://www.w3.org/2000/svg" width="24"  height="24" >
          <path stroke-linecap="round" stroke-linejoin="round" d="M1 1h.5v0c.226 0 .339 0 .44.007a3 3 0 0 1 2.62 1.976c.034.095.065.204.127.42l.17.597m0 0 1.817 6.358c.475 1.664.713 2.496 1.198 3.114a4 4 0 0 0 1.633 1.231c.727.297 1.592.297 3.322.297h2.285c1.75 0 2.626 0 3.359-.302a4 4 0 0 0 1.64-1.253c.484-.627.715-1.472 1.175-3.161l.06-.221c.563-2.061.844-3.092.605-3.906a3 3 0 0 0-1.308-1.713C19.92 4 18.853 4 16.716 4H4.857ZM12 20a2 2 0 1 1-4 0 2 2 0 0 1 4 0Zm8 0a2 2 0 1 1-4 0 2 2 0 0 1 4 0Z" stroke="#171717" fill="none" stroke-width="1.5px"></path>
        </svg>