<svg xmlns:xlink="http://www.w3.org/1999/xlink" class="icon icon-support icon-lg inline-block" viewBox="0 0 24 24" stroke="currentColor" fill="none" xmlns="http://www.w3.org/2000/svg" width="24"  height="24" >
      <path class="fill" d="M6.09 17.43H4.75C3.65 17.43 2.75 16.54 2.75 15.43V12.28C2.75 11.18 3.64 10.28 4.75 10.28H6.09C7.19 10.28 8.09 11.17 8.09 12.28V15.43C8.09 16.53 7.2 17.43 6.09 17.43ZM20.56 15.43V12.28C20.56 11.18 19.67 10.28 18.56 10.28H17.22C16.12 10.28 15.22 11.17 15.22 12.28V15.43C15.22 16.53 16.11 17.43 17.22 17.43H18.56C19.66 17.43 20.56 16.54 20.56 15.43Z" fill-opacity="0.1" fill="#FFFFFF" stroke-width="1.5px"></path>
      <path d="M4.94 17.43V19.86C4.94 20.93 6.01 22 7.43 22H11.65M20.56 13.78V10.67C20.57 5.74 16.58 1.75 11.66 1.75C6.74 1.75 2.75 5.74 2.75 10.66V13.77M12.27 21.99C12.27 22.32 12 22.59 11.67 22.59C11.34 22.59 11.07 22.32 11.07 21.99M12.27 21.99C12.27 21.66 12 21.39 11.67 21.39C11.34 21.39 11.07 21.66 11.07 21.99M12.27 21.99H11.07M20.57 14.76V12.96C20.57 12.13 20.57 11.71 20.43 11.39C20.25 10.95 19.9 10.61 19.47 10.43C19.14 10.29 18.73 10.29 17.9 10.29C17.07 10.29 16.65 10.29 16.33 10.43C15.89 10.61 15.55 10.96 15.37 11.39C15.23 11.72 15.23 12.13 15.23 12.96V14.76C15.23 15.59 15.23 16.01 15.37 16.33C15.55 16.77 15.9 17.11 16.33 17.29C16.66 17.43 17.07 17.43 17.9 17.43C18.73 17.43 19.15 17.43 19.47 17.29C19.91 17.11 20.25 16.76 20.43 16.33C20.57 16 20.57 15.59 20.57 14.76ZM5.43 17.43C6.26 17.43 6.68 17.43 7 17.29C7.44 17.11 7.78 16.76 7.96 16.33C8.1 16 8.1 15.59 8.1 14.76V12.96C8.1 12.13 8.1 11.71 7.96 11.39C7.78 10.95 7.43 10.61 7 10.43C6.67 10.29 6.26 10.29 5.43 10.29C4.6 10.29 4.18 10.29 3.86 10.43C3.42 10.61 3.08 10.96 2.9 11.39C2.76 11.72 2.76 12.13 2.76 12.96V14.76C2.76 15.59 2.76 16.01 2.9 16.33C3.08 16.77 3.43 17.11 3.86 17.29C4.19 17.43 4.6 17.43 5.43 17.43Z" stroke-linecap="round" stroke-linejoin="round" stroke="#FFFFFF" fill="none" stroke-width="1.5px"></path>
    </svg>