<svg xmlns:xlink="http://www.w3.org/1999/xlink" class="icon icon-instagram icon-sm" viewBox="0 0 24 24" stroke="none" fill="currentColor" xmlns="http://www.w3.org/2000/svg" width="24"  height="24" >
      <path d="M12 2.98C14.94 2.98 15.28 2.99 16.44 3.04C17.14 3.04 17.83 3.18 18.48 3.42C18.96 3.6 19.39 3.88 19.75 4.24C20.12 4.59 20.4 5.03 20.57 5.51C20.81 6.16 20.94 6.85 20.95 7.55C21 8.71 21.01 9.06 21.01 12C21.01 14.94 21 15.28 20.95 16.44C20.95 17.14 20.81 17.83 20.57 18.48C20.39 18.95 20.11 19.39 19.75 19.75C19.39 20.11 18.96 20.39 18.48 20.57C17.83 20.81 17.14 20.94 16.44 20.95C15.28 21 14.93 21.01 12 21.01C9.07 21.01 8.72 21 7.55 20.95C6.85 20.95 6.16 20.81 5.51 20.57C5.03 20.39 4.6 20.11 4.24 19.75C3.87 19.4 3.59 18.96 3.42 18.48C3.18 17.83 3.05 17.14 3.04 16.44C2.99 15.28 2.98 14.93 2.98 12C2.98 9.07 2.99 8.72 3.04 7.55C3.04 6.85 3.18 6.16 3.42 5.51C3.6 5.03 3.88 4.6 4.24 4.24C4.59 3.87 5.03 3.59 5.51 3.42C6.16 3.18 6.85 3.05 7.55 3.04C8.71 2.99 9.06 2.98 12 2.98ZM12 1C9.01 1 8.64 1.01 7.47 1.07C6.56 1.09 5.65 1.26 4.8 1.58C4.07 1.86 3.4 2.3 2.85 2.85C2.3 3.41 1.86 4.07 1.58 4.8C1.26 5.65 1.09 6.56 1.07 7.47C1.02 8.64 1 9.01 1 12C1 14.99 1.01 15.36 1.07 16.53C1.09 17.44 1.26 18.35 1.58 19.2C1.86 19.93 2.3 20.6 2.85 21.15C3.41 21.7 4.07 22.14 4.8 22.42C5.65 22.74 6.56 22.91 7.47 22.93C8.64 22.98 9.01 23 12 23C14.99 23 15.36 22.99 16.53 22.93C17.44 22.91 18.35 22.74 19.2 22.42C19.93 22.14 20.6 21.7 21.15 21.15C21.7 20.59 22.14 19.93 22.42 19.2C22.74 18.35 22.91 17.44 22.93 16.53C22.98 15.36 23 14.99 23 12C23 9.01 22.99 8.64 22.93 7.47C22.91 6.56 22.74 5.65 22.42 4.8C22.14 4.07 21.7 3.4 21.15 2.85C20.59 2.3 19.93 1.86 19.2 1.58C18.35 1.26 17.44 1.09 16.53 1.07C15.36 1.02 14.99 1 12 1ZM12 6.35C10.88 6.35 9.79 6.68 8.86 7.3C7.93 7.92 7.21 8.8 6.78 9.84C6.35 10.87 6.24 12.01 6.46 13.1C6.68 14.2 7.22 15.2 8.01 15.99C8.8 16.78 9.81 17.32 10.9 17.54C12 17.76 13.13 17.65 14.16 17.22C15.19 16.79 16.07 16.07 16.7 15.14C17.32 14.21 17.65 13.12 17.65 12C17.65 10.5 17.05 9.06 16 8.01C14.94 6.95 13.5 6.36 12.01 6.36L12 6.35ZM12 15.67C11.27 15.67 10.57 15.45 9.96 15.05C9.36 14.65 8.89 14.07 8.61 13.4C8.33 12.73 8.26 11.99 8.4 11.28C8.54 10.57 8.89 9.92 9.4 9.4C9.91 8.88 10.57 8.54 11.28 8.4C11.99 8.26 12.73 8.33 13.4 8.61C14.07 8.89 14.64 9.36 15.05 9.96C15.45 10.56 15.67 11.27 15.67 12C15.67 12.97 15.28 13.91 14.6 14.59C13.91 15.28 12.98 15.66 12.01 15.66L12 15.67ZM17.87 7.45C18.6 7.45 19.19 6.86 19.19 6.13C19.19 5.4 18.6 4.81 17.87 4.81C17.14 4.81 16.55 5.4 16.55 6.13C16.55 6.86 17.14 7.45 17.87 7.45Z" fill="#171717" stroke-width="1.5px"></path>
    </svg>